<mxfile host="app.diagrams.net" agent="Mozilla/5.0 (X11; Linux x86_64) AppleWebKit/537.36 (KHTML, like Gecko) Chrome/133.0.0.0 Safari/537.36" version="28.0.7">
  <diagram name="Page-1" id="EJofL4tZgCRY-9jk-cLS">
    <mxGraphModel dx="2228" dy="741" grid="1" gridSize="10" guides="1" tooltips="1" connect="1" arrows="1" fold="1" page="1" pageScale="1" pageWidth="850" pageHeight="1100" math="0" shadow="0">
      <root>
        <mxCell id="0" />
        <mxCell id="1" parent="0" />
        <mxCell id="LhhUSZEw7hSiGQZ5wi7O-90" value="AWS Cloud" style="whiteSpace=wrap;strokeWidth=2;fillColor=#dae8fc;strokeColor=#6c8ebf;" parent="1" vertex="1">
          <mxGeometry x="-20" y="188" width="830" height="838" as="geometry" />
        </mxCell>
        <mxCell id="LhhUSZEw7hSiGQZ5wi7O-91" value="Compute" style="whiteSpace=wrap;strokeWidth=2;fillColor=#f5f5f5;fontColor=#333333;strokeColor=#666666;" parent="1" vertex="1">
          <mxGeometry x="40" y="686" width="248" height="315" as="geometry" />
        </mxCell>
        <mxCell id="LhhUSZEw7hSiGQZ5wi7O-92" value="Storage" style="whiteSpace=wrap;strokeWidth=2;fillColor=#f5f5f5;fontColor=#333333;strokeColor=#666666;" parent="1" vertex="1">
          <mxGeometry x="310" y="390" width="460" height="527" as="geometry" />
        </mxCell>
        <mxCell id="LhhUSZEw7hSiGQZ5wi7O-93" value="Messaging" style="whiteSpace=wrap;strokeWidth=2;fillColor=#f5f5f5;fontColor=#333333;strokeColor=#666666;" parent="1" vertex="1">
          <mxGeometry x="49" y="528" width="211" height="104" as="geometry" />
        </mxCell>
        <mxCell id="LhhUSZEw7hSiGQZ5wi7O-94" value="API Layer" style="whiteSpace=wrap;strokeWidth=2;fillColor=#f5f5f5;fontColor=#333333;strokeColor=#666666;" parent="1" vertex="1">
          <mxGeometry x="333" y="213" width="447" height="128" as="geometry" />
        </mxCell>
        <mxCell id="LhhUSZEw7hSiGQZ5wi7O-95" value="User&#39;s Environment" style="whiteSpace=wrap;strokeWidth=2;fillColor=#d5e8d4;strokeColor=#82b366;" parent="1" vertex="1">
          <mxGeometry x="390" y="10" width="204" height="104" as="geometry" />
        </mxCell>
        <mxCell id="LhhUSZEw7hSiGQZ5wi7O-96" value="👤 User/Client" style="rounded=1;arcSize=20;strokeWidth=2" parent="1" vertex="1">
          <mxGeometry x="425" y="35" width="134" height="54" as="geometry" />
        </mxCell>
        <mxCell id="LhhUSZEw7hSiGQZ5wi7O-97" value="🚀 FastAPI Service on EC2/ECS" style="rounded=1;arcSize=20;strokeWidth=2" parent="1" vertex="1">
          <mxGeometry x="392" y="238" width="230" height="78" as="geometry" />
        </mxCell>
        <mxCell id="LhhUSZEw7hSiGQZ5wi7O-98" value="📦 S3 Bucket" style="rounded=1;arcSize=20;strokeWidth=2" parent="1" vertex="1">
          <mxGeometry x="343" y="420" width="127" height="54" as="geometry" />
        </mxCell>
        <mxCell id="LhhUSZEw7hSiGQZ5wi7O-99" value="🗄️ DynamoDB Table" style="rounded=1;arcSize=20;strokeWidth=2" parent="1" vertex="1">
          <mxGeometry x="440" y="843" width="179" height="54" as="geometry" />
        </mxCell>
        <mxCell id="LhhUSZEw7hSiGQZ5wi7O-100" value="📬 SQS Queue" style="rounded=1;arcSize=20;strokeWidth=2" parent="1" vertex="1">
          <mxGeometry x="84" y="553" width="141" height="54" as="geometry" />
        </mxCell>
        <mxCell id="LhhUSZEw7hSiGQZ5wi7O-101" value="⚙️ Lambda Function &#xa; &#39;convert_to_pdf&#39;" style="rounded=1;arcSize=20;strokeWidth=2" parent="1" vertex="1">
          <mxGeometry x="75" y="711" width="178" height="78" as="geometry" />
        </mxCell>
        <mxCell id="LhhUSZEw7hSiGQZ5wi7O-102" value="" style="whiteSpace=wrap;strokeWidth=2;" parent="1" vertex="1">
          <mxGeometry x="102" y="870" as="geometry" />
        </mxCell>
        <mxCell id="LhhUSZEw7hSiGQZ5wi7O-103" value="" style="whiteSpace=wrap;strokeWidth=2;" parent="1" vertex="1">
          <mxGeometry x="119" y="976" as="geometry" />
        </mxCell>
        <mxCell id="LhhUSZEw7hSiGQZ5wi7O-104" value="1. POST /upload file" style="curved=1;startArrow=none;endArrow=block;exitX=0.26;exitY=1;entryX=0.36;entryY=0;rounded=0;" parent="1" source="LhhUSZEw7hSiGQZ5wi7O-96" target="LhhUSZEw7hSiGQZ5wi7O-97" edge="1">
          <mxGeometry relative="1" as="geometry">
            <Array as="points">
              <mxPoint x="452" y="134" />
              <mxPoint x="320" y="170" />
              <mxPoint x="452" y="213" />
            </Array>
          </mxGeometry>
        </mxCell>
        <mxCell id="LhhUSZEw7hSiGQZ5wi7O-105" value="2. Uploads original file to &#39;uploads/&#39;" style="curved=1;startArrow=none;endArrow=block;exitX=0.23;exitY=1;entryX=0.5;entryY=0;rounded=0;" parent="1" source="LhhUSZEw7hSiGQZ5wi7O-97" target="LhhUSZEw7hSiGQZ5wi7O-98" edge="1">
          <mxGeometry relative="1" as="geometry">
            <Array as="points">
              <mxPoint x="407" y="341" />
            </Array>
          </mxGeometry>
        </mxCell>
        <mxCell id="LhhUSZEw7hSiGQZ5wi7O-106" value="3. Creates status entry (PENDING)" style="curved=1;startArrow=none;endArrow=block;exitX=0.5;exitY=1;entryX=0.43;entryY=0;rounded=0;" parent="1" source="LhhUSZEw7hSiGQZ5wi7O-97" target="LhhUSZEw7hSiGQZ5wi7O-99" edge="1">
          <mxGeometry relative="1" as="geometry">
            <Array as="points">
              <mxPoint x="505" y="341" />
              <mxPoint x="507" y="570" />
              <mxPoint x="505" y="816" />
            </Array>
          </mxGeometry>
        </mxCell>
        <mxCell id="LhhUSZEw7hSiGQZ5wi7O-107" value="4. Sends event notification" style="curved=1;startArrow=none;endArrow=block;exitX=0.31;exitY=1;entryX=1;entryY=0.17;rounded=0;" parent="1" source="LhhUSZEw7hSiGQZ5wi7O-98" target="LhhUSZEw7hSiGQZ5wi7O-100" edge="1">
          <mxGeometry relative="1" as="geometry">
            <Array as="points">
              <mxPoint x="357" y="501" />
              <mxPoint x="357" y="528" />
            </Array>
          </mxGeometry>
        </mxCell>
        <mxCell id="LhhUSZEw7hSiGQZ5wi7O-108" value="5. Triggers Lambda with message" style="curved=1;startArrow=none;endArrow=block;exitX=0.38;exitY=1;entryX=0.36;entryY=0;rounded=0;" parent="1" source="LhhUSZEw7hSiGQZ5wi7O-100" target="LhhUSZEw7hSiGQZ5wi7O-101" edge="1">
          <mxGeometry relative="1" as="geometry">
            <Array as="points">
              <mxPoint x="122" y="632" />
              <mxPoint x="80" y="690" />
            </Array>
          </mxGeometry>
        </mxCell>
        <mxCell id="LhhUSZEw7hSiGQZ5wi7O-109" value="6. Updates status to PROCESSING" style="curved=1;startArrow=none;endArrow=block;exitX=0.63;exitY=1;entryX=0;entryY=0.23;rounded=0;" parent="1" source="LhhUSZEw7hSiGQZ5wi7O-101" target="LhhUSZEw7hSiGQZ5wi7O-99" edge="1">
          <mxGeometry relative="1" as="geometry">
            <Array as="points">
              <mxPoint x="203" y="816" />
              <mxPoint x="310" y="880" />
            </Array>
          </mxGeometry>
        </mxCell>
        <mxCell id="LhhUSZEw7hSiGQZ5wi7O-110" value="7. Downloads original file" style="curved=1;startArrow=none;endArrow=block;exitX=1;exitY=0.2;entryX=0.5;entryY=1;rounded=0;" parent="1" source="LhhUSZEw7hSiGQZ5wi7O-101" target="LhhUSZEw7hSiGQZ5wi7O-98" edge="1">
          <mxGeometry relative="1" as="geometry">
            <Array as="points">
              <mxPoint x="407" y="686" />
            </Array>
          </mxGeometry>
        </mxCell>
        <mxCell id="LhhUSZEw7hSiGQZ5wi7O-111" value="" style="curved=1;startArrow=none;endArrow=none;exitX=0.29;exitY=1;entryX=Infinity;entryY=-Infinity;rounded=0;" parent="1" source="LhhUSZEw7hSiGQZ5wi7O-101" target="LhhUSZEw7hSiGQZ5wi7O-102" edge="1">
          <mxGeometry relative="1" as="geometry">
            <Array as="points">
              <mxPoint x="102" y="816" />
            </Array>
          </mxGeometry>
        </mxCell>
        <mxCell id="LhhUSZEw7hSiGQZ5wi7O-112" value="8. Converts file to PDF" style="curved=1;startArrow=none;endArrow=none;exitX=Infinity;exitY=Infinity;entryX=Infinity;entryY=NaN;rounded=0;" parent="1" source="LhhUSZEw7hSiGQZ5wi7O-102" target="LhhUSZEw7hSiGQZ5wi7O-103" edge="1">
          <mxGeometry relative="1" as="geometry">
            <Array as="points">
              <mxPoint x="102" y="949" />
            </Array>
          </mxGeometry>
        </mxCell>
        <mxCell id="LhhUSZEw7hSiGQZ5wi7O-113" value="" style="curved=1;startArrow=none;endArrow=block;exitX=Infinity;exitY=NaN;entryX=0.41;entryY=1;rounded=0;" parent="1" source="LhhUSZEw7hSiGQZ5wi7O-103" target="LhhUSZEw7hSiGQZ5wi7O-101" edge="1">
          <mxGeometry relative="1" as="geometry">
            <Array as="points">
              <mxPoint x="137" y="949" />
              <mxPoint x="137" y="816" />
            </Array>
          </mxGeometry>
        </mxCell>
        <mxCell id="LhhUSZEw7hSiGQZ5wi7O-114" value="9. Uploads converted PDF to &#39;output/&#39;" style="curved=1;startArrow=none;endArrow=block;exitX=1;exitY=0.25;entryX=0.7;entryY=1;rounded=0;" parent="1" source="LhhUSZEw7hSiGQZ5wi7O-101" target="LhhUSZEw7hSiGQZ5wi7O-98" edge="1">
          <mxGeometry relative="1" as="geometry">
            <Array as="points">
              <mxPoint x="456" y="686" />
              <mxPoint x="456" y="501" />
            </Array>
          </mxGeometry>
        </mxCell>
        <mxCell id="LhhUSZEw7hSiGQZ5wi7O-115" value="10. Updates status to SUCCESS/FAILED" style="curved=1;startArrow=none;endArrow=block;exitX=0.71;exitY=1;entryX=0;entryY=0.2;rounded=0;" parent="1" source="LhhUSZEw7hSiGQZ5wi7O-101" target="LhhUSZEw7hSiGQZ5wi7O-99" edge="1">
          <mxGeometry relative="1" as="geometry">
            <Array as="points">
              <mxPoint x="227" y="816" />
              <mxPoint x="370" y="800" />
            </Array>
          </mxGeometry>
        </mxCell>
        <mxCell id="LhhUSZEw7hSiGQZ5wi7O-116" value="11. Deletes message from queue" style="curved=1;startArrow=none;endArrow=block;exitX=0.51;exitY=0;entryX=0.55;entryY=1;rounded=0;" parent="1" source="LhhUSZEw7hSiGQZ5wi7O-101" target="LhhUSZEw7hSiGQZ5wi7O-100" edge="1">
          <mxGeometry relative="1" as="geometry">
            <Array as="points">
              <mxPoint x="167" y="686" />
              <mxPoint x="200" y="650" />
              <mxPoint x="167" y="632" />
            </Array>
          </mxGeometry>
        </mxCell>
        <mxCell id="LhhUSZEw7hSiGQZ5wi7O-117" value="12. GET /status/{file_id}" style="curved=1;startArrow=none;endArrow=block;exitX=0.43;exitY=1;entryX=0.47;entryY=0;rounded=0;" parent="1" source="LhhUSZEw7hSiGQZ5wi7O-96" target="LhhUSZEw7hSiGQZ5wi7O-97" edge="1">
          <mxGeometry relative="1" as="geometry">
            <Array as="points">
              <mxPoint x="495" y="134" />
              <mxPoint x="495" y="213" />
            </Array>
          </mxGeometry>
        </mxCell>
        <mxCell id="LhhUSZEw7hSiGQZ5wi7O-118" value="13. Reads status from table" style="curved=1;startArrow=none;endArrow=block;exitX=0.57;exitY=1;entryX=0.51;entryY=0;rounded=0;" parent="1" source="LhhUSZEw7hSiGQZ5wi7O-97" target="LhhUSZEw7hSiGQZ5wi7O-99" edge="1">
          <mxGeometry x="-0.2247" y="-5" relative="1" as="geometry">
            <Array as="points">
              <mxPoint x="532" y="341" />
              <mxPoint x="610" y="560" />
              <mxPoint x="532" y="816" />
            </Array>
            <mxPoint x="-1" as="offset" />
          </mxGeometry>
        </mxCell>
        <mxCell id="LhhUSZEw7hSiGQZ5wi7O-119" value="14. Returns status" style="curved=1;startArrow=none;endArrow=block;exitX=0.57;exitY=0;entryX=0.63;entryY=1;rounded=0;" parent="1" source="LhhUSZEw7hSiGQZ5wi7O-99" target="LhhUSZEw7hSiGQZ5wi7O-97" edge="1">
          <mxGeometry relative="1" as="geometry">
            <Array as="points">
              <mxPoint x="556" y="816" />
              <mxPoint x="730" y="510" />
              <mxPoint x="556" y="341" />
            </Array>
          </mxGeometry>
        </mxCell>
        <mxCell id="LhhUSZEw7hSiGQZ5wi7O-120" value="15. Returns status to user" style="curved=1;startArrow=none;endArrow=block;exitX=0.55;exitY=0;entryX=0.55;entryY=1;rounded=0;" parent="1" source="LhhUSZEw7hSiGQZ5wi7O-97" target="LhhUSZEw7hSiGQZ5wi7O-96" edge="1">
          <mxGeometry relative="1" as="geometry">
            <Array as="points">
              <mxPoint x="526" y="213" />
              <mxPoint x="670" y="160" />
              <mxPoint x="526" y="134" />
            </Array>
          </mxGeometry>
        </mxCell>
      </root>
    </mxGraphModel>
  </diagram>
</mxfile>
